<svg width="96" height="96" viewBox="0 0 96 96" fill="none" xmlns="http://www.w3.org/2000/svg" role="img" aria-label="API-Load logo">
  <rect x="10" y="10" width="76" height="76" rx="20" fill="#FBFAF7"/>
  <rect x="10" y="10" width="76" height="76" rx="20" stroke="#E4DED4" stroke-width="2"/>
  <path d="M48 20L70 72H59.6L54.9 60H40.8L36.2 72H26L48 20Z" fill="#9B5F46"/>
  <path d="M44.1 51H51.7L47.9 41.1L44.1 51Z" fill="#FBFAF7"/>
  <circle cx="48" cy="26" r="4.5" fill="#DE7356"/>
  <circle cx="24" cy="48" r="4" fill="#B1ADA1"/>
  <circle cx="72" cy="48" r="4" fill="#B1ADA1"/>
  <circle cx="48" cy="76" r="4" fill="#B1ADA1"/>
  <path d="M44.2 30.5L28.5 45.2" stroke="#C15F3C" stroke-width="3" stroke-linecap="round"/>
  <path d="M51.8 30.5L67.5 45.2" stroke="#C15F3C" stroke-width="3" stroke-linecap="round"/>
  <path d="M48 64V71" stroke="#C15F3C" stroke-width="3" stroke-linecap="round"/>
  <path d="M31 48H39" stroke="#C15F3C" stroke-width="2.5" stroke-linecap="round" opacity="0.65"/>
  <path d="M57 48H65" stroke="#C15F3C" stroke-width="2.5" stroke-linecap="round" opacity="0.65"/>
</svg>
